<svg width="197" height="100" viewBox="0 0 197 100" fill="none" xmlns="http://www.w3.org/2000/svg">
<rect x="147" y="40" width="20" height="20" rx="10" fill="#C3C3C3"/>
<rect x="108" y="40" width="20" height="20" rx="10" fill="#C3C3C3"/>
<rect x="69" y="40" width="20" height="20" rx="10" fill="#858585"/>
<rect x="30" y="40" width="20" height="20" rx="10" fill="#858585"/>
<rect x="127" y="20" width="20" height="20" rx="10" fill="#3D3D3D"/>
<rect x="88" y="20" width="20" height="20" rx="10" fill="#858585"/>
<rect x="49" y="20" width="20" height="20" rx="10" fill="#3D3D3D"/>
<rect x="107" width="20" height="20" rx="10" fill="#3D3D3D"/>
<rect x="69" width="20" height="20" rx="10" fill="#C3C3C3"/>
<rect width="20" height="20" rx="10" transform="matrix(1 0 0 -1 128 80)" fill="#858585"/>
<rect width="20" height="20" rx="10" transform="matrix(1 0 0 -1 89 80)" fill="#3D3D3D"/>
<rect width="20" height="20" rx="10" transform="matrix(1 0 0 -1 50 80)" fill="#C3C3C3"/>
<rect width="20" height="20" rx="10" transform="matrix(1 0 0 -1 108 100)" fill="#858585"/>
<rect width="20" height="20" rx="10" transform="matrix(1 0 0 -1 70 100)" fill="#3D3D3D"/>
</svg>
