<svg width="197" height="100" viewBox="0 0 197 100" fill="none" xmlns="http://www.w3.org/2000/svg">
<g clip-path="url(#clip0_167_706)">
<rect x="177" y="40" width="20" height="20" rx="10" fill="#858585"/>
<rect x="118" y="40" width="20" height="20" rx="10" fill="#858585"/>
<rect x="59" y="40" width="20" height="20" rx="10" fill="#858585"/>
<rect y="40" width="20" height="20" rx="10" fill="#858585"/>
<rect x="149" y="20" width="20" height="20" rx="10" fill="#858585"/>
<rect x="90" y="20" width="20" height="20" rx="10" fill="#858585"/>
<rect x="31" y="20" width="20" height="20" rx="10" fill="#858585"/>
<rect x="118" width="20" height="20" rx="10" fill="#858585"/>
<rect x="59" width="20" height="20" rx="10" fill="#858585"/>
<rect width="20" height="20" rx="10" transform="matrix(1 0 0 -1 149 80)" fill="#858585"/>
<rect width="20" height="20" rx="10" transform="matrix(1 0 0 -1 90 80)" fill="#858585"/>
<rect width="20" height="20" rx="10" transform="matrix(1 0 0 -1 31 80)" fill="#858585"/>
<rect width="20" height="20" rx="10" transform="matrix(1 0 0 -1 118 100)" fill="#858585"/>
<rect width="20" height="20" rx="10" transform="matrix(1 0 0 -1 59 100)" fill="#858585"/>
</g>
<defs>
<clipPath id="clip0_167_706">
<rect width="197" height="100" fill="white"/>
</clipPath>
</defs>
</svg>
