<svg width="197" height="100" viewBox="0 0 197 100" fill="none" xmlns="http://www.w3.org/2000/svg">
<rect x="131" y="40" width="20" height="20" rx="10" fill="#858585"/>
<rect x="103" y="40" width="20" height="20" rx="10" fill="#858585"/>
<rect x="75" y="40" width="20" height="20" rx="10" fill="#858585"/>
<rect x="47" y="40" width="20" height="20" rx="10" fill="#858585"/>
<rect x="117" y="20" width="20" height="20" rx="10" fill="#858585"/>
<rect x="89" y="20" width="20" height="20" rx="10" fill="#858585"/>
<rect x="61" y="20" width="20" height="20" rx="10" fill="#858585"/>
<rect x="103" width="20" height="20" rx="10" fill="#858585"/>
<rect x="75" width="20" height="20" rx="10" fill="#858585"/>
<rect width="20" height="20" rx="10" transform="matrix(1 0 0 -1 117 80)" fill="#858585"/>
<rect width="20" height="20" rx="10" transform="matrix(1 0 0 -1 89 80)" fill="#858585"/>
<rect width="20" height="20" rx="10" transform="matrix(1 0 0 -1 61 80)" fill="#858585"/>
<rect width="20" height="20" rx="10" transform="matrix(1 0 0 -1 103 100)" fill="#858585"/>
<rect width="20" height="20" rx="10" transform="matrix(1 0 0 -1 75 100)" fill="#858585"/>
</svg>
