<svg width="99" height="108" viewBox="0 0 99 108" fill="none" xmlns="http://www.w3.org/2000/svg">
<path d="M29.2501 45.8812C39.9813 45.8931 47.0954 49.0877 51.1778 51.7687C54.2245 53.7694 55.4196 57.3892 55.3403 61.0331C55.2545 64.9819 55.2168 69.5981 55.5 69.8812C55.9999 70.3809 56.7501 70.3815 57.25 69.8812C57.7499 69.3809 57.25 59 59.2501 55.3812C62.4951 49.5098 78.7499 25.3806 77.75 24.3809C76.7501 23.3812 71 30.5003 69.5 31C68 31.4997 61 32 57.25 31.5C53.5 31 47.5 29 47.5 27.5C47.5 26 48.5 23.8809 48 23C47.5 22.1191 42.75 19 42.5 17.5C42.25 16 45.2501 2.88146 49.2501 0.381158C53.25 -2.11914 88.2501 8.38116 90.2501 11.3812C92.25 14.3812 97.75 46.3812 98.2501 62.8812C98.7501 79.3812 97.75 91.8812 92.75 96.8812C87.75 101.881 62.8391 99.3812 59.7501 99.8812C56.6611 100.381 45.2501 107.381 29.2501 107.381C13.2501 107.381 1.75011 95.8812 0.750068 92.3812C-0.24997 88.8812 -0.250075 61.3812 0.750068 58.3812C1.75021 55.3812 10.7501 45.8606 29.2501 45.8812Z" fill="#3D3D3D"/>
<path d="M28.4998 82.5C19.4997 82.0001 13.4999 76.2021 11.9997 77.5006C10.4996 78.799 19.9999 87 28.5 87C37.0001 87 47.4998 81.5004 46.4998 80.0004C45.4998 78.5004 37.4999 82.9999 28.4998 82.5Z" fill="#F3F2F1"/>
</svg>
