<svg width="90" height="97" viewBox="0 0 90 97" fill="none" xmlns="http://www.w3.org/2000/svg">
<path d="M19.5 68.1582C28.5 67.1582 38 67.6578 42.5 68.1582C47 68.6586 51 71.0583 54 71.6582C57 72.2582 61.9998 71.6591 62.9999 70.6582C64 69.6573 63.5003 59.6591 66.5001 52.1586L66.523 52.1014C69.5466 44.5413 78.7473 21.5368 77.7499 20.5397C76.75 19.54 70.9999 23.6586 69.4999 24.1583C67.9999 24.6581 62.7499 26.6583 58.9999 26.1583C55.2499 25.6583 50.9999 24.6583 50.9999 23.1583C50.9999 21.6583 51.4999 19.5392 50.9999 18.6583C50.4999 17.7775 49.2499 15.1583 48.9999 13.6583C48.7499 12.1583 50.4999 3.15865 54.4999 0.65835C58.4998 -1.84195 84.5791 3.27762 87.4999 7.659C90.4206 12.0404 88.9999 41.1591 88.9999 52.1586C88.9999 63.1582 85 82.1582 81 86.1582C77 90.1582 64.089 93.1582 61 93.6582C57.911 94.1582 45.5 96.04 29.5 96.04C13.5 96.04 1.75004 92.04 0.750006 88.54C-0.250032 85.04 -0.250013 79.6582 0.75013 76.6582C1.75027 73.6582 10.5 69.1582 19.5 68.1582Z" fill="#3D3D3D"/>
</svg>
