<svg width="204" height="166" viewBox="0 0 204 166" fill="none" xmlns="http://www.w3.org/2000/svg">
<path d="M132.75 121H185.25M185.25 121L159 94.75M185.25 121L159 147.25" stroke="#3D3D3D" stroke-width="8" stroke-linecap="round" stroke-linejoin="round"/>
<path d="M5.68253 138V103.091H19.4553C22.103 103.091 24.3587 103.597 26.2223 104.608C28.0859 105.608 29.5064 107 30.4837 108.784C31.4723 110.557 31.9666 112.602 31.9666 114.92C31.9666 117.239 31.4666 119.284 30.4666 121.057C29.4666 122.83 28.0178 124.21 26.12 125.199C24.2337 126.187 21.9496 126.682 19.2678 126.682H10.4893V120.767H18.0746C19.495 120.767 20.6655 120.523 21.5859 120.034C22.5178 119.534 23.2109 118.847 23.6655 117.972C24.1314 117.085 24.3643 116.068 24.3643 114.92C24.3643 113.761 24.1314 112.75 23.6655 111.886C23.2109 111.011 22.5178 110.335 21.5859 109.858C20.6541 109.369 19.4723 109.125 18.0405 109.125H13.0632V138H5.68253ZM36.6243 138V111.818H43.6641V116.386H43.9368C44.4141 114.761 45.2152 113.534 46.3402 112.705C47.4652 111.864 48.7607 111.443 50.2266 111.443C50.5902 111.443 50.9822 111.466 51.4027 111.511C51.8232 111.557 52.1925 111.619 52.5107 111.699V118.142C52.1697 118.04 51.6982 117.949 51.0959 117.869C50.4936 117.79 49.9425 117.75 49.4425 117.75C48.3743 117.75 47.4197 117.983 46.5788 118.449C45.7493 118.903 45.0902 119.54 44.6016 120.358C44.1243 121.176 43.8857 122.119 43.8857 123.188V138H36.6243ZM66.978 138.511C64.2848 138.511 61.9666 137.966 60.0234 136.875C58.0916 135.773 56.603 134.216 55.5575 132.205C54.5121 130.182 53.9893 127.79 53.9893 125.028C53.9893 122.335 54.5121 119.972 55.5575 117.938C56.603 115.903 58.0746 114.318 59.9723 113.182C61.8814 112.045 64.12 111.477 66.6882 111.477C68.4155 111.477 70.0234 111.756 71.5121 112.312C73.0121 112.858 74.3189 113.682 75.4325 114.784C76.5575 115.886 77.4325 117.273 78.0575 118.943C78.6825 120.602 78.995 122.545 78.995 124.773V126.767H56.8871V122.267H72.1598C72.1598 121.222 71.9325 120.295 71.478 119.489C71.0234 118.682 70.3928 118.051 69.5859 117.597C68.7905 117.131 67.8643 116.898 66.8075 116.898C65.7053 116.898 64.728 117.153 63.8757 117.665C63.0348 118.165 62.3757 118.841 61.8984 119.693C61.4212 120.534 61.1768 121.472 61.1655 122.506V126.784C61.1655 128.08 61.4041 129.199 61.8814 130.142C62.37 131.085 63.0575 131.812 63.9439 132.324C64.8303 132.835 65.8814 133.091 67.0973 133.091C67.9041 133.091 68.6428 132.977 69.3132 132.75C69.9837 132.523 70.5575 132.182 71.0348 131.727C71.5121 131.273 71.8757 130.716 72.1257 130.057L78.8416 130.5C78.5007 132.114 77.8018 133.523 76.745 134.727C75.6996 135.92 74.3473 136.852 72.6882 137.523C71.0405 138.182 69.1371 138.511 66.978 138.511ZM93.3814 138.426C91.3928 138.426 89.5916 137.915 87.978 136.892C86.3757 135.858 85.103 134.341 84.1598 132.341C83.228 130.33 82.7621 127.864 82.7621 124.943C82.7621 121.943 83.245 119.449 84.2109 117.46C85.1768 115.46 86.4609 113.966 88.0632 112.977C89.6768 111.977 91.4439 111.477 93.3643 111.477C94.8303 111.477 96.0518 111.727 97.0291 112.227C98.0178 112.716 98.8132 113.33 99.4155 114.068C100.029 114.795 100.495 115.511 100.813 116.216H101.035V103.091H108.279V138H101.12V133.807H100.813C100.472 134.534 99.9893 135.256 99.3643 135.972C98.7507 136.676 97.9496 137.261 96.9609 137.727C95.9837 138.193 94.7905 138.426 93.3814 138.426ZM95.6825 132.648C96.853 132.648 97.8416 132.33 98.6484 131.693C99.4666 131.045 100.092 130.142 100.523 128.983C100.967 127.824 101.188 126.466 101.188 124.909C101.188 123.352 100.972 122 100.54 120.852C100.109 119.705 99.4837 118.818 98.6655 118.193C97.8473 117.568 96.853 117.256 95.6825 117.256C94.4893 117.256 93.4837 117.58 92.6655 118.227C91.8473 118.875 91.228 119.773 90.8075 120.92C90.3871 122.068 90.1768 123.398 90.1768 124.909C90.1768 126.432 90.3871 127.778 90.8075 128.949C91.2393 130.108 91.8587 131.017 92.6655 131.676C93.4837 132.324 94.4893 132.648 95.6825 132.648Z" fill="#3D3D3D"/>
<path d="M132.75 45H185.25M185.25 45L159 18.75M185.25 45L159 71.25" stroke="#3D3D3D" stroke-width="8" stroke-linecap="round" stroke-linejoin="round"/>
<path d="M9.36222 62V27.0909H32.4759V33.1761H16.7429V41.4943H30.9418V47.5795H16.7429V62H9.36222ZM47.3139 62.5114C44.6207 62.5114 42.3026 61.9659 40.3594 60.875C38.4276 59.7727 36.9389 58.2159 35.8935 56.2045C34.848 54.1818 34.3253 51.7898 34.3253 49.0284C34.3253 46.3352 34.848 43.9716 35.8935 41.9375C36.9389 39.9034 38.4105 38.3182 40.3082 37.1818C42.2173 36.0455 44.456 35.4773 47.0241 35.4773C48.7514 35.4773 50.3594 35.7557 51.848 36.3125C53.348 36.858 54.6548 37.6818 55.7685 38.7841C56.8935 39.8864 57.7685 41.2727 58.3935 42.9432C59.0185 44.6023 59.331 46.5455 59.331 48.7727V50.767H37.223V46.267H52.4957C52.4957 45.2216 52.2685 44.2955 51.8139 43.4886C51.3594 42.6818 50.7287 42.0511 49.9219 41.5966C49.1264 41.1307 48.2003 40.8977 47.1435 40.8977C46.0412 40.8977 45.0639 41.1534 44.2116 41.6648C43.3707 42.1648 42.7116 42.8409 42.2344 43.6932C41.7571 44.5341 41.5128 45.4716 41.5014 46.5057V50.7841C41.5014 52.0795 41.7401 53.1989 42.2173 54.142C42.706 55.0852 43.3935 55.8125 44.2798 56.3239C45.1662 56.8352 46.2173 57.0909 47.4332 57.0909C48.2401 57.0909 48.9787 56.9773 49.6491 56.75C50.3196 56.5227 50.8935 56.1818 51.3707 55.7273C51.848 55.2727 52.2116 54.7159 52.4616 54.0568L59.1776 54.5C58.8366 56.1136 58.1378 57.5227 57.081 58.7273C56.0355 59.9205 54.6832 60.8523 53.0241 61.5227C51.3764 62.1818 49.473 62.5114 47.3139 62.5114ZM71.5355 62.4943C69.8651 62.4943 68.3764 62.2045 67.0696 61.625C65.7628 61.0341 64.7287 60.1648 63.9673 59.017C63.2173 57.858 62.8423 56.4148 62.8423 54.6875C62.8423 53.233 63.1094 52.0114 63.6435 51.0227C64.1776 50.0341 64.9048 49.2386 65.8253 48.6364C66.7457 48.0341 67.7912 47.5795 68.9616 47.2727C70.1435 46.9659 71.3821 46.75 72.6776 46.625C74.2003 46.4659 75.4276 46.3182 76.3594 46.1818C77.2912 46.0341 77.9673 45.8182 78.3878 45.5341C78.8082 45.25 79.0185 44.8295 79.0185 44.2727V44.1705C79.0185 43.0909 78.6776 42.2557 77.9957 41.6648C77.3253 41.0739 76.3707 40.7784 75.1321 40.7784C73.8253 40.7784 72.7855 41.0682 72.0128 41.6477C71.2401 42.2159 70.7287 42.9318 70.4787 43.7955L63.7628 43.25C64.1037 41.6591 64.7741 40.2841 65.7741 39.125C66.7741 37.9545 68.0639 37.0568 69.6435 36.4318C71.2344 35.7955 73.0753 35.4773 75.1662 35.4773C76.6207 35.4773 78.0128 35.6477 79.3423 35.9886C80.6832 36.3295 81.8707 36.858 82.9048 37.5739C83.9503 38.2898 84.7741 39.2102 85.3764 40.3352C85.9787 41.4489 86.2798 42.7841 86.2798 44.3409V62H79.3935V58.3693H79.1889C78.7685 59.1875 78.206 59.9091 77.5014 60.5341C76.7969 61.1477 75.9503 61.6307 74.9616 61.983C73.973 62.3239 72.831 62.4943 71.5355 62.4943ZM73.6151 57.483C74.6832 57.483 75.6264 57.2727 76.4446 56.8523C77.2628 56.4205 77.9048 55.8409 78.3707 55.1136C78.8366 54.3864 79.0696 53.5625 79.0696 52.642V49.8636C78.8423 50.0114 78.5298 50.1477 78.1321 50.2727C77.7457 50.3864 77.3082 50.4943 76.8196 50.5966C76.331 50.6875 75.8423 50.7727 75.3537 50.8523C74.8651 50.9205 74.4219 50.983 74.0241 51.0398C73.1719 51.1648 72.4276 51.3636 71.7912 51.6364C71.1548 51.9091 70.6605 52.2784 70.3082 52.7443C69.956 53.1989 69.7798 53.767 69.7798 54.4489C69.7798 55.4375 70.1378 56.1932 70.8537 56.7159C71.581 57.2273 72.5014 57.483 73.6151 57.483ZM105.839 35.8182V41.2727H90.0724V35.8182H105.839ZM93.652 29.5455H100.913V53.9545C100.913 54.625 101.016 55.1477 101.22 55.5227C101.425 55.8864 101.709 56.142 102.072 56.2898C102.447 56.4375 102.879 56.5114 103.368 56.5114C103.709 56.5114 104.05 56.483 104.391 56.4261C104.732 56.358 104.993 56.3068 105.175 56.2727L106.317 61.6761C105.953 61.7898 105.442 61.9205 104.783 62.0682C104.124 62.2273 103.322 62.3239 102.379 62.358C100.629 62.4261 99.0952 62.1932 97.777 61.6591C96.4702 61.125 95.4531 60.2955 94.7259 59.1705C93.9986 58.0455 93.6406 56.625 93.652 54.9091V29.5455Z" fill="#3D3D3D"/>
</svg>
