<svg width="230" height="161" viewBox="0 0 230 161" fill="none" xmlns="http://www.w3.org/2000/svg">
<path d="M229.838 38L201.028 0V76L229.838 38Z" fill="#3D3D3D"/>
<rect width="201.028" height="76" fill="#3D3D3D"/>
<path d="M61.7717 51V24.8182H79.1069V29.3821H67.3072V35.6207H77.9563V40.1847H67.3072V51H61.7717ZM90.2354 51.3835C88.2156 51.3835 86.4769 50.9744 85.0195 50.1562C83.5707 49.3295 82.4542 48.1619 81.6701 46.6534C80.886 45.1364 80.494 43.3423 80.494 41.2713C80.494 39.2514 80.886 37.4787 81.6701 35.9531C82.4542 34.4276 83.5579 33.2386 84.9812 32.3864C86.413 31.5341 88.092 31.108 90.0181 31.108C91.3136 31.108 92.5195 31.3168 93.636 31.7344C94.761 32.1435 95.7411 32.7614 96.5764 33.5881C97.4201 34.4148 98.0764 35.4545 98.5451 36.7074C99.0139 37.9517 99.2482 39.4091 99.2482 41.0795V42.5753H82.6673V39.2003H94.1218C94.1218 38.4162 93.9514 37.7216 93.6104 37.1165C93.2695 36.5114 92.7965 36.0384 92.1914 35.6974C91.5948 35.348 90.9002 35.1733 90.1076 35.1733C89.2809 35.1733 88.5479 35.3651 87.9087 35.7486C87.2781 36.1236 86.7837 36.6307 86.4258 37.2699C86.0678 37.9006 85.8846 38.6037 85.8761 39.3793V42.5881C85.8761 43.5597 86.055 44.3991 86.413 45.1065C86.7795 45.8139 87.2951 46.3594 87.9599 46.7429C88.6246 47.1264 89.413 47.3182 90.3249 47.3182C90.93 47.3182 91.484 47.233 91.9869 47.0625C92.4897 46.892 92.9201 46.6364 93.2781 46.2955C93.636 45.9545 93.9087 45.5369 94.0962 45.0426L99.1332 45.375C98.8775 46.5852 98.3533 47.642 97.5607 48.5455C96.7766 49.4403 95.7624 50.1392 94.5181 50.642C93.2823 51.1364 91.8548 51.3835 90.2354 51.3835ZM108.402 51.3707C107.149 51.3707 106.032 51.1534 105.052 50.7188C104.072 50.2756 103.297 49.6236 102.725 48.7628C102.163 47.8935 101.882 46.8111 101.882 45.5156C101.882 44.4247 102.082 43.5085 102.483 42.767C102.883 42.0256 103.429 41.429 104.119 40.9773C104.809 40.5256 105.593 40.1847 106.471 39.9545C107.358 39.7244 108.287 39.5625 109.258 39.4688C110.4 39.3494 111.321 39.2386 112.02 39.1364C112.718 39.0256 113.225 38.8636 113.541 38.6506C113.856 38.4375 114.014 38.1222 114.014 37.7045V37.6278C114.014 36.8182 113.758 36.1918 113.247 35.7486C112.744 35.3054 112.028 35.0838 111.099 35.0838C110.119 35.0838 109.339 35.3011 108.76 35.7358C108.18 36.1619 107.797 36.6989 107.609 37.3466L102.572 36.9375C102.828 35.7443 103.331 34.7131 104.081 33.8438C104.831 32.9659 105.798 32.2926 106.983 31.8239C108.176 31.3466 109.556 31.108 111.125 31.108C112.216 31.108 113.26 31.2358 114.257 31.4915C115.262 31.7472 116.153 32.1435 116.929 32.6804C117.713 33.2173 118.331 33.9077 118.782 34.7514C119.234 35.5866 119.46 36.5881 119.46 37.7557V51H114.295V48.277H114.142C113.826 48.8906 113.404 49.4318 112.876 49.9006C112.348 50.3608 111.713 50.723 110.971 50.9872C110.23 51.2429 109.373 51.3707 108.402 51.3707ZM109.961 47.6122C110.762 47.6122 111.47 47.4545 112.083 47.1392C112.697 46.8153 113.179 46.3807 113.528 45.8352C113.877 45.2898 114.052 44.6719 114.052 43.9815V41.8977C113.882 42.0085 113.647 42.1108 113.349 42.2045C113.059 42.2898 112.731 42.3707 112.365 42.4474C111.998 42.5156 111.632 42.5795 111.265 42.6392C110.899 42.6903 110.566 42.7372 110.268 42.7798C109.629 42.8736 109.071 43.0227 108.593 43.2273C108.116 43.4318 107.745 43.7088 107.481 44.0582C107.217 44.3991 107.085 44.8253 107.085 45.3366C107.085 46.0781 107.353 46.6449 107.89 47.0369C108.436 47.4205 109.126 47.6122 109.961 47.6122ZM134.13 31.3636V35.4545H122.304V31.3636H134.13ZM124.989 26.6591H130.435V44.9659C130.435 45.4687 130.512 45.8608 130.665 46.142C130.819 46.4148 131.032 46.6065 131.304 46.7173C131.586 46.8281 131.909 46.8835 132.276 46.8835C132.532 46.8835 132.787 46.8622 133.043 46.8196C133.299 46.7685 133.495 46.7301 133.631 46.7045L134.488 50.7571C134.215 50.8423 133.831 50.9403 133.337 51.0511C132.843 51.1705 132.242 51.2429 131.534 51.2685C130.222 51.3196 129.071 51.1449 128.083 50.7443C127.103 50.3437 126.34 49.7216 125.794 48.8778C125.249 48.0341 124.98 46.9687 124.989 45.6818V26.6591Z" fill="white"/>
<rect y="85" width="201.028" height="76" fill="#3D3D3D"/>
<path d="M229.838 123L201.028 85V161L229.838 123Z" fill="#3D3D3D"/>
<path d="M59.5119 136V109.818H69.8414C71.8272 109.818 73.519 110.197 74.9167 110.956C76.3145 111.706 77.3798 112.75 78.1127 114.088C78.8542 115.418 79.225 116.952 79.225 118.69C79.225 120.429 78.85 121.963 78.1 123.293C77.35 124.622 76.2633 125.658 74.84 126.399C73.4252 127.141 71.7122 127.511 69.7008 127.511H63.117V123.075H68.8059C69.8713 123.075 70.7491 122.892 71.4395 122.526C72.1383 122.151 72.6582 121.635 72.9991 120.979C73.3485 120.314 73.5233 119.551 73.5233 118.69C73.5233 117.821 73.3485 117.062 72.9991 116.415C72.6582 115.759 72.1383 115.251 71.4395 114.893C70.7406 114.527 69.8542 114.344 68.7804 114.344H65.0474V136H59.5119ZM82.7182 136V116.364H87.998V119.79H88.2026C88.5605 118.571 89.1614 117.651 90.0051 117.028C90.8489 116.398 91.8205 116.082 92.9199 116.082C93.1926 116.082 93.4867 116.099 93.802 116.134C94.1174 116.168 94.3944 116.214 94.633 116.274V121.107C94.3773 121.03 94.0236 120.962 93.5719 120.902C93.1202 120.842 92.7069 120.812 92.3319 120.812C91.5307 120.812 90.8148 120.987 90.1841 121.337C89.562 121.678 89.0676 122.155 88.7012 122.768C88.3432 123.382 88.1642 124.089 88.1642 124.891V136H82.7182ZM105.483 136.384C103.464 136.384 101.725 135.974 100.268 135.156C98.8187 134.33 97.7022 133.162 96.9181 131.653C96.1341 130.136 95.742 128.342 95.742 126.271C95.742 124.251 96.1341 122.479 96.9181 120.953C97.7022 119.428 98.8059 118.239 100.229 117.386C101.661 116.534 103.34 116.108 105.266 116.108C106.562 116.108 107.768 116.317 108.884 116.734C110.009 117.143 110.989 117.761 111.824 118.588C112.668 119.415 113.324 120.455 113.793 121.707C114.262 122.952 114.496 124.409 114.496 126.08V127.575H97.9153V124.2H109.37C109.37 123.416 109.199 122.722 108.858 122.116C108.518 121.511 108.045 121.038 107.439 120.697C106.843 120.348 106.148 120.173 105.356 120.173C104.529 120.173 103.796 120.365 103.157 120.749C102.526 121.124 102.032 121.631 101.674 122.27C101.316 122.901 101.133 123.604 101.124 124.379V127.588C101.124 128.56 101.303 129.399 101.661 130.107C102.028 130.814 102.543 131.359 103.208 131.743C103.873 132.126 104.661 132.318 105.573 132.318C106.178 132.318 106.732 132.233 107.235 132.062C107.738 131.892 108.168 131.636 108.526 131.295C108.884 130.955 109.157 130.537 109.344 130.043L114.381 130.375C114.126 131.585 113.601 132.642 112.809 133.545C112.025 134.44 111.01 135.139 109.766 135.642C108.53 136.136 107.103 136.384 105.483 136.384ZM125.286 136.32C123.795 136.32 122.444 135.936 121.233 135.169C120.032 134.393 119.077 133.256 118.37 131.756C117.671 130.247 117.322 128.398 117.322 126.207C117.322 123.957 117.684 122.087 118.408 120.595C119.133 119.095 120.096 117.974 121.297 117.233C122.508 116.483 123.833 116.108 125.273 116.108C126.373 116.108 127.289 116.295 128.022 116.67C128.763 117.037 129.36 117.497 129.812 118.051C130.272 118.597 130.621 119.134 130.86 119.662H131.026V109.818H136.459V136H131.09V132.855H130.86C130.604 133.401 130.242 133.942 129.773 134.479C129.313 135.007 128.712 135.446 127.971 135.795C127.238 136.145 126.343 136.32 125.286 136.32ZM127.012 131.986C127.89 131.986 128.631 131.747 129.236 131.27C129.85 130.784 130.319 130.107 130.643 129.237C130.975 128.368 131.141 127.349 131.141 126.182C131.141 125.014 130.979 124 130.655 123.139C130.331 122.278 129.863 121.614 129.249 121.145C128.635 120.676 127.89 120.442 127.012 120.442C126.117 120.442 125.363 120.685 124.749 121.17C124.135 121.656 123.671 122.33 123.356 123.19C123.04 124.051 122.883 125.048 122.883 126.182C122.883 127.324 123.04 128.334 123.356 129.212C123.68 130.081 124.144 130.763 124.749 131.257C125.363 131.743 126.117 131.986 127.012 131.986Z" fill="white"/>
</svg>
