<svg width="224" height="166" viewBox="0 0 224 166" fill="none" xmlns="http://www.w3.org/2000/svg">
<path d="M71.25 121H18.75M18.75 121L45 94.75M18.75 121L45 147.25" stroke="#3D3D3D" stroke-width="8" stroke-linecap="round" stroke-linejoin="round"/>
<path d="M95.6825 138V103.091H109.455C112.103 103.091 114.359 103.597 116.222 104.608C118.086 105.608 119.506 107 120.484 108.784C121.472 110.557 121.967 112.602 121.967 114.92C121.967 117.239 121.467 119.284 120.467 121.057C119.467 122.83 118.018 124.21 116.12 125.199C114.234 126.187 111.95 126.682 109.268 126.682H100.489V120.767H108.075C109.495 120.767 110.665 120.523 111.586 120.034C112.518 119.534 113.211 118.847 113.665 117.972C114.131 117.085 114.364 116.068 114.364 114.92C114.364 113.761 114.131 112.75 113.665 111.886C113.211 111.011 112.518 110.335 111.586 109.858C110.654 109.369 109.472 109.125 108.04 109.125H103.063V138H95.6825ZM126.624 138V111.818H133.664V116.386H133.937C134.414 114.761 135.215 113.534 136.34 112.705C137.465 111.864 138.761 111.443 140.227 111.443C140.59 111.443 140.982 111.466 141.403 111.511C141.823 111.557 142.192 111.619 142.511 111.699V118.142C142.17 118.04 141.698 117.949 141.096 117.869C140.494 117.79 139.942 117.75 139.442 117.75C138.374 117.75 137.42 117.983 136.579 118.449C135.749 118.903 135.09 119.54 134.602 120.358C134.124 121.176 133.886 122.119 133.886 123.188V138H126.624ZM156.978 138.511C154.285 138.511 151.967 137.966 150.023 136.875C148.092 135.773 146.603 134.216 145.558 132.205C144.512 130.182 143.989 127.79 143.989 125.028C143.989 122.335 144.512 119.972 145.558 117.938C146.603 115.903 148.075 114.318 149.972 113.182C151.881 112.045 154.12 111.477 156.688 111.477C158.415 111.477 160.023 111.756 161.512 112.312C163.012 112.858 164.319 113.682 165.433 114.784C166.558 115.886 167.433 117.273 168.058 118.943C168.683 120.602 168.995 122.545 168.995 124.773V126.767H146.887V122.267H162.16C162.16 121.222 161.933 120.295 161.478 119.489C161.023 118.682 160.393 118.051 159.586 117.597C158.79 117.131 157.864 116.898 156.808 116.898C155.705 116.898 154.728 117.153 153.876 117.665C153.035 118.165 152.376 118.841 151.898 119.693C151.421 120.534 151.177 121.472 151.165 122.506V126.784C151.165 128.08 151.404 129.199 151.881 130.142C152.37 131.085 153.058 131.812 153.944 132.324C154.83 132.835 155.881 133.091 157.097 133.091C157.904 133.091 158.643 132.977 159.313 132.75C159.984 132.523 160.558 132.182 161.035 131.727C161.512 131.273 161.876 130.716 162.126 130.057L168.842 130.5C168.501 132.114 167.802 133.523 166.745 134.727C165.7 135.92 164.347 136.852 162.688 137.523C161.04 138.182 159.137 138.511 156.978 138.511ZM183.381 138.426C181.393 138.426 179.592 137.915 177.978 136.892C176.376 135.858 175.103 134.341 174.16 132.341C173.228 130.33 172.762 127.864 172.762 124.943C172.762 121.943 173.245 119.449 174.211 117.46C175.177 115.46 176.461 113.966 178.063 112.977C179.677 111.977 181.444 111.477 183.364 111.477C184.83 111.477 186.052 111.727 187.029 112.227C188.018 112.716 188.813 113.33 189.415 114.068C190.029 114.795 190.495 115.511 190.813 116.216H191.035V103.091H198.279V138H191.12V133.807H190.813C190.472 134.534 189.989 135.256 189.364 135.972C188.751 136.676 187.95 137.261 186.961 137.727C185.984 138.193 184.79 138.426 183.381 138.426ZM185.683 132.648C186.853 132.648 187.842 132.33 188.648 131.693C189.467 131.045 190.092 130.142 190.523 128.983C190.967 127.824 191.188 126.466 191.188 124.909C191.188 123.352 190.972 122 190.54 120.852C190.109 119.705 189.484 118.818 188.665 118.193C187.847 117.568 186.853 117.256 185.683 117.256C184.489 117.256 183.484 117.58 182.665 118.227C181.847 118.875 181.228 119.773 180.808 120.92C180.387 122.068 180.177 123.398 180.177 124.909C180.177 126.432 180.387 127.778 180.808 128.949C181.239 130.108 181.859 131.017 182.665 131.676C183.484 132.324 184.489 132.648 185.683 132.648Z" fill="#3D3D3D"/>
<path d="M152.75 45H205.25M205.25 45L179 18.75M205.25 45L179 71.25" stroke="#3D3D3D" stroke-width="8" stroke-linecap="round" stroke-linejoin="round"/>
<path d="M29.3622 62V27.0909H52.4759V33.1761H36.7429V41.4943H50.9418V47.5795H36.7429V62H29.3622ZM67.3139 62.5114C64.6207 62.5114 62.3026 61.9659 60.3594 60.875C58.4276 59.7727 56.9389 58.2159 55.8935 56.2045C54.848 54.1818 54.3253 51.7898 54.3253 49.0284C54.3253 46.3352 54.848 43.9716 55.8935 41.9375C56.9389 39.9034 58.4105 38.3182 60.3082 37.1818C62.2173 36.0455 64.456 35.4773 67.0241 35.4773C68.7514 35.4773 70.3594 35.7557 71.848 36.3125C73.348 36.858 74.6548 37.6818 75.7685 38.7841C76.8935 39.8864 77.7685 41.2727 78.3935 42.9432C79.0185 44.6023 79.331 46.5455 79.331 48.7727V50.767H57.223V46.267H72.4957C72.4957 45.2216 72.2685 44.2955 71.8139 43.4886C71.3594 42.6818 70.7287 42.0511 69.9219 41.5966C69.1264 41.1307 68.2003 40.8977 67.1435 40.8977C66.0412 40.8977 65.0639 41.1534 64.2116 41.6648C63.3707 42.1648 62.7116 42.8409 62.2344 43.6932C61.7571 44.5341 61.5128 45.4716 61.5014 46.5057V50.7841C61.5014 52.0795 61.7401 53.1989 62.2173 54.142C62.706 55.0852 63.3935 55.8125 64.2798 56.3239C65.1662 56.8352 66.2173 57.0909 67.4332 57.0909C68.2401 57.0909 68.9787 56.9773 69.6491 56.75C70.3196 56.5227 70.8935 56.1818 71.3707 55.7273C71.848 55.2727 72.2116 54.7159 72.4616 54.0568L79.1776 54.5C78.8366 56.1136 78.1378 57.5227 77.081 58.7273C76.0355 59.9205 74.6832 60.8523 73.0241 61.5227C71.3764 62.1818 69.473 62.5114 67.3139 62.5114ZM91.5355 62.4943C89.8651 62.4943 88.3764 62.2045 87.0696 61.625C85.7628 61.0341 84.7287 60.1648 83.9673 59.017C83.2173 57.858 82.8423 56.4148 82.8423 54.6875C82.8423 53.233 83.1094 52.0114 83.6435 51.0227C84.1776 50.0341 84.9048 49.2386 85.8253 48.6364C86.7457 48.0341 87.7912 47.5795 88.9616 47.2727C90.1435 46.9659 91.3821 46.75 92.6776 46.625C94.2003 46.4659 95.4276 46.3182 96.3594 46.1818C97.2912 46.0341 97.9673 45.8182 98.3878 45.5341C98.8082 45.25 99.0185 44.8295 99.0185 44.2727V44.1705C99.0185 43.0909 98.6776 42.2557 97.9957 41.6648C97.3253 41.0739 96.3707 40.7784 95.1321 40.7784C93.8253 40.7784 92.7855 41.0682 92.0128 41.6477C91.2401 42.2159 90.7287 42.9318 90.4787 43.7955L83.7628 43.25C84.1037 41.6591 84.7741 40.2841 85.7741 39.125C86.7741 37.9545 88.0639 37.0568 89.6435 36.4318C91.2344 35.7955 93.0753 35.4773 95.1662 35.4773C96.6207 35.4773 98.0128 35.6477 99.3423 35.9886C100.683 36.3295 101.871 36.858 102.905 37.5739C103.95 38.2898 104.774 39.2102 105.376 40.3352C105.979 41.4489 106.28 42.7841 106.28 44.3409V62H99.3935V58.3693H99.1889C98.7685 59.1875 98.206 59.9091 97.5014 60.5341C96.7969 61.1477 95.9503 61.6307 94.9616 61.983C93.973 62.3239 92.831 62.4943 91.5355 62.4943ZM93.6151 57.483C94.6832 57.483 95.6264 57.2727 96.4446 56.8523C97.2628 56.4205 97.9048 55.8409 98.3707 55.1136C98.8366 54.3864 99.0696 53.5625 99.0696 52.642V49.8636C98.8423 50.0114 98.5298 50.1477 98.1321 50.2727C97.7457 50.3864 97.3082 50.4943 96.8196 50.5966C96.331 50.6875 95.8423 50.7727 95.3537 50.8523C94.8651 50.9205 94.4219 50.983 94.0241 51.0398C93.1719 51.1648 92.4276 51.3636 91.7912 51.6364C91.1548 51.9091 90.6605 52.2784 90.3082 52.7443C89.956 53.1989 89.7798 53.767 89.7798 54.4489C89.7798 55.4375 90.1378 56.1932 90.8537 56.7159C91.581 57.2273 92.5014 57.483 93.6151 57.483ZM125.839 35.8182V41.2727H110.072V35.8182H125.839ZM113.652 29.5455H120.913V53.9545C120.913 54.625 121.016 55.1477 121.22 55.5227C121.425 55.8864 121.709 56.142 122.072 56.2898C122.447 56.4375 122.879 56.5114 123.368 56.5114C123.709 56.5114 124.05 56.483 124.391 56.4261C124.732 56.358 124.993 56.3068 125.175 56.2727L126.317 61.6761C125.953 61.7898 125.442 61.9205 124.783 62.0682C124.124 62.2273 123.322 62.3239 122.379 62.358C120.629 62.4261 119.095 62.1932 117.777 61.6591C116.47 61.125 115.453 60.2955 114.726 59.1705C113.999 58.0455 113.641 56.625 113.652 54.9091V29.5455Z" fill="#3D3D3D"/>
</svg>
