<svg width="259" height="161" viewBox="0 0 259 161" fill="none" xmlns="http://www.w3.org/2000/svg">
<rect x="29" width="201.028" height="76" fill="#3D3D3D"/>
<path d="M258.838 38L230.028 0V76L258.838 38Z" fill="#3D3D3D"/>
<path d="M91.7717 51V24.8182H109.107V29.3821H97.3072V35.6207H107.956V40.1847H97.3072V51H91.7717ZM120.235 51.3835C118.216 51.3835 116.477 50.9744 115.02 50.1562C113.571 49.3295 112.454 48.1619 111.67 46.6534C110.886 45.1364 110.494 43.3423 110.494 41.2713C110.494 39.2514 110.886 37.4787 111.67 35.9531C112.454 34.4276 113.558 33.2386 114.981 32.3864C116.413 31.5341 118.092 31.108 120.018 31.108C121.314 31.108 122.52 31.3168 123.636 31.7344C124.761 32.1435 125.741 32.7614 126.576 33.5881C127.42 34.4148 128.076 35.4545 128.545 36.7074C129.014 37.9517 129.248 39.4091 129.248 41.0795V42.5753H112.667V39.2003H124.122C124.122 38.4162 123.951 37.7216 123.61 37.1165C123.27 36.5114 122.797 36.0384 122.191 35.6974C121.595 35.348 120.9 35.1733 120.108 35.1733C119.281 35.1733 118.548 35.3651 117.909 35.7486C117.278 36.1236 116.784 36.6307 116.426 37.2699C116.068 37.9006 115.885 38.6037 115.876 39.3793V42.5881C115.876 43.5597 116.055 44.3991 116.413 45.1065C116.779 45.8139 117.295 46.3594 117.96 46.7429C118.625 47.1264 119.413 47.3182 120.325 47.3182C120.93 47.3182 121.484 47.233 121.987 47.0625C122.49 46.892 122.92 46.6364 123.278 46.2955C123.636 45.9545 123.909 45.5369 124.096 45.0426L129.133 45.375C128.877 46.5852 128.353 47.642 127.561 48.5455C126.777 49.4403 125.762 50.1392 124.518 50.642C123.282 51.1364 121.855 51.3835 120.235 51.3835ZM138.402 51.3707C137.149 51.3707 136.032 51.1534 135.052 50.7188C134.072 50.2756 133.297 49.6236 132.725 48.7628C132.163 47.8935 131.882 46.8111 131.882 45.5156C131.882 44.4247 132.082 43.5085 132.483 42.767C132.883 42.0256 133.429 41.429 134.119 40.9773C134.809 40.5256 135.593 40.1847 136.471 39.9545C137.358 39.7244 138.287 39.5625 139.258 39.4688C140.4 39.3494 141.321 39.2386 142.02 39.1364C142.718 39.0256 143.225 38.8636 143.541 38.6506C143.856 38.4375 144.014 38.1222 144.014 37.7045V37.6278C144.014 36.8182 143.758 36.1918 143.247 35.7486C142.744 35.3054 142.028 35.0838 141.099 35.0838C140.119 35.0838 139.339 35.3011 138.76 35.7358C138.18 36.1619 137.797 36.6989 137.609 37.3466L132.572 36.9375C132.828 35.7443 133.331 34.7131 134.081 33.8438C134.831 32.9659 135.798 32.2926 136.983 31.8239C138.176 31.3466 139.556 31.108 141.125 31.108C142.216 31.108 143.26 31.2358 144.257 31.4915C145.262 31.7472 146.153 32.1435 146.929 32.6804C147.713 33.2173 148.331 33.9077 148.782 34.7514C149.234 35.5866 149.46 36.5881 149.46 37.7557V51H144.295V48.277H144.142C143.826 48.8906 143.404 49.4318 142.876 49.9006C142.348 50.3608 141.713 50.723 140.971 50.9872C140.23 51.2429 139.373 51.3707 138.402 51.3707ZM139.961 47.6122C140.762 47.6122 141.47 47.4545 142.083 47.1392C142.697 46.8153 143.179 46.3807 143.528 45.8352C143.877 45.2898 144.052 44.6719 144.052 43.9815V41.8977C143.882 42.0085 143.647 42.1108 143.349 42.2045C143.059 42.2898 142.731 42.3707 142.365 42.4474C141.998 42.5156 141.632 42.5795 141.265 42.6392C140.899 42.6903 140.566 42.7372 140.268 42.7798C139.629 42.8736 139.071 43.0227 138.593 43.2273C138.116 43.4318 137.745 43.7088 137.481 44.0582C137.217 44.3991 137.085 44.8253 137.085 45.3366C137.085 46.0781 137.353 46.6449 137.89 47.0369C138.436 47.4205 139.126 47.6122 139.961 47.6122ZM164.13 31.3636V35.4545H152.304V31.3636H164.13ZM154.989 26.6591H160.435V44.9659C160.435 45.4687 160.512 45.8608 160.665 46.142C160.819 46.4148 161.032 46.6065 161.304 46.7173C161.586 46.8281 161.909 46.8835 162.276 46.8835C162.532 46.8835 162.787 46.8622 163.043 46.8196C163.299 46.7685 163.495 46.7301 163.631 46.7045L164.488 50.7571C164.215 50.8423 163.831 50.9403 163.337 51.0511C162.843 51.1705 162.242 51.2429 161.534 51.2685C160.222 51.3196 159.071 51.1449 158.083 50.7443C157.103 50.3437 156.34 49.7216 155.794 48.8778C155.249 48.0341 154.98 46.9687 154.989 45.6818V26.6591Z" fill="white"/>
<rect width="201.028" height="76" transform="matrix(-1 0 0 1 229.838 85)" fill="#3D3D3D"/>
<path d="M-0.000211716 123L28.8096 85V161L-0.000211716 123Z" fill="#3D3D3D"/>
<path d="M87.5119 136V109.818H97.8414C99.8272 109.818 101.519 110.197 102.917 110.956C104.314 111.706 105.38 112.75 106.113 114.088C106.854 115.418 107.225 116.952 107.225 118.69C107.225 120.429 106.85 121.963 106.1 123.293C105.35 124.622 104.263 125.658 102.84 126.399C101.425 127.141 99.7122 127.511 97.7008 127.511H91.117V123.075H96.8059C97.8713 123.075 98.7491 122.892 99.4395 122.526C100.138 122.151 100.658 121.635 100.999 120.979C101.349 120.314 101.523 119.551 101.523 118.69C101.523 117.821 101.349 117.062 100.999 116.415C100.658 115.759 100.138 115.251 99.4395 114.893C98.7406 114.527 97.8542 114.344 96.7804 114.344H93.0474V136H87.5119ZM110.718 136V116.364H115.998V119.79H116.203C116.561 118.571 117.161 117.651 118.005 117.028C118.849 116.398 119.82 116.082 120.92 116.082C121.193 116.082 121.487 116.099 121.802 116.134C122.117 116.168 122.394 116.214 122.633 116.274V121.107C122.377 121.03 122.024 120.962 121.572 120.902C121.12 120.842 120.707 120.812 120.332 120.812C119.531 120.812 118.815 120.987 118.184 121.337C117.562 121.678 117.068 122.155 116.701 122.768C116.343 123.382 116.164 124.089 116.164 124.891V136H110.718ZM133.483 136.384C131.464 136.384 129.725 135.974 128.268 135.156C126.819 134.33 125.702 133.162 124.918 131.653C124.134 130.136 123.742 128.342 123.742 126.271C123.742 124.251 124.134 122.479 124.918 120.953C125.702 119.428 126.806 118.239 128.229 117.386C129.661 116.534 131.34 116.108 133.266 116.108C134.562 116.108 135.768 116.317 136.884 116.734C138.009 117.143 138.989 117.761 139.824 118.588C140.668 119.415 141.324 120.455 141.793 121.707C142.262 122.952 142.496 124.409 142.496 126.08V127.575H125.915V124.2H137.37C137.37 123.416 137.199 122.722 136.858 122.116C136.518 121.511 136.045 121.038 135.439 120.697C134.843 120.348 134.148 120.173 133.356 120.173C132.529 120.173 131.796 120.365 131.157 120.749C130.526 121.124 130.032 121.631 129.674 122.27C129.316 122.901 129.133 123.604 129.124 124.379V127.588C129.124 128.56 129.303 129.399 129.661 130.107C130.028 130.814 130.543 131.359 131.208 131.743C131.873 132.126 132.661 132.318 133.573 132.318C134.178 132.318 134.732 132.233 135.235 132.062C135.738 131.892 136.168 131.636 136.526 131.295C136.884 130.955 137.157 130.537 137.344 130.043L142.381 130.375C142.126 131.585 141.601 132.642 140.809 133.545C140.025 134.44 139.01 135.139 137.766 135.642C136.53 136.136 135.103 136.384 133.483 136.384ZM153.286 136.32C151.795 136.32 150.444 135.936 149.233 135.169C148.032 134.393 147.077 133.256 146.37 131.756C145.671 130.247 145.322 128.398 145.322 126.207C145.322 123.957 145.684 122.087 146.408 120.595C147.133 119.095 148.096 117.974 149.297 117.233C150.508 116.483 151.833 116.108 153.273 116.108C154.373 116.108 155.289 116.295 156.022 116.67C156.763 117.037 157.36 117.497 157.812 118.051C158.272 118.597 158.621 119.134 158.86 119.662H159.026V109.818H164.459V136H159.09V132.855H158.86C158.604 133.401 158.242 133.942 157.773 134.479C157.313 135.007 156.712 135.446 155.971 135.795C155.238 136.145 154.343 136.32 153.286 136.32ZM155.012 131.986C155.89 131.986 156.631 131.747 157.236 131.27C157.85 130.784 158.319 130.107 158.643 129.237C158.975 128.368 159.141 127.349 159.141 126.182C159.141 125.014 158.979 124 158.655 123.139C158.331 122.278 157.863 121.614 157.249 121.145C156.635 120.676 155.89 120.442 155.012 120.442C154.117 120.442 153.363 120.685 152.749 121.17C152.135 121.656 151.671 122.33 151.356 123.19C151.04 124.051 150.883 125.048 150.883 126.182C150.883 127.324 151.04 128.334 151.356 129.212C151.68 130.081 152.144 130.763 152.749 131.257C153.363 131.743 154.117 131.986 155.012 131.986Z" fill="white"/>
</svg>
